<svg id="Layer_1" data-name="Layer 1" xmlns="http://www.w3.org/2000/svg" viewBox="0 0 152.74 70.38"><defs><style>.cls-1{fill:#be1e2d;}.cls-2{fill:#f15a29;}.cls-3{opacity:0.89;}</style></defs><title>Ecart_logo</title><path class="cls-1" d="M39.76,49.77a.5.5,0,0,1-.48-.35l-1.65-5.11a.51.51,0,0,1,.49-.67H71.91L76.32,34H34.78a.5.5,0,0,1-.48-.35l-1.65-5.11a.51.51,0,0,1,.49-.67h46l4.29-9.39a1.69,1.69,0,0,0-1.54-2.39h-67a1.69,1.69,0,0,0-1.61,2.21L27.12,60.9a1.67,1.67,0,0,0,1.6,1.17H62.41a1.71,1.71,0,0,0,1.54-1l5.16-11.31Z"/><path class="cls-2" d="M37.55,47.9a.53.53,0,0,1-.49-.36l-1.64-5.1a.51.51,0,0,1,.48-.67H69.7l4.41-9.66H32.57a.5.5,0,0,1-.48-.35l-1.65-5.11a.51.51,0,0,1,.48-.67h46l4.29-9.39a1.69,1.69,0,0,0-1.53-2.4h-67A1.69,1.69,0,0,0,11,16.41L24.91,59a1.68,1.68,0,0,0,1.6,1.16H60.2a1.7,1.7,0,0,0,1.54-1L66.9,47.9Z"/><path class="cls-1" d="M0,1.46.91,4.17a.66.66,0,0,0,.62.44H9.89A.65.65,0,0,1,10.5,5l2.25,6.68a.65.65,0,0,0,.61.43h3.9a.64.64,0,0,0,.61-.84L14.58,1.06A.65.65,0,0,0,14,.62H.64A.64.64,0,0,0,0,1.46Z"/><circle class="cls-1" cx="25.41" cy="67.26" r="3.19"/><circle class="cls-1" cx="61.35" cy="67.26" r="3.19"/><g class="cls-3"><path class="cls-1" d="M75.41,53.08A9.38,9.38,0,0,1,76,49.89a8.86,8.86,0,0,1,1.68-2.84,8.61,8.61,0,0,1,2.68-2A8.12,8.12,0,0,1,84,44.25a7.67,7.67,0,0,1,4.12,1.08,6.72,6.72,0,0,1,2.6,2.8l-3.15,2.2a3.49,3.49,0,0,0-.7-1.16,3.79,3.79,0,0,0-.92-.75,3.49,3.49,0,0,0-1-.4,4.69,4.69,0,0,0-1-.12,3.6,3.6,0,0,0-1.9.48,4.21,4.21,0,0,0-1.33,1.22,5.64,5.64,0,0,0-.79,1.7,7.48,7.48,0,0,0-.26,1.93,6.82,6.82,0,0,0,.31,2A5.76,5.76,0,0,0,80.77,57a4.18,4.18,0,0,0,1.36,1.19,3.69,3.69,0,0,0,1.78.43,4.15,4.15,0,0,0,1-.13A4.08,4.08,0,0,0,86,58a3.22,3.22,0,0,0,.9-.75,3.51,3.51,0,0,0,.65-1.14l3.38,2a5.49,5.49,0,0,1-1.17,1.75A7,7,0,0,1,88,61.18a9,9,0,0,1-4.2,1.07,7.35,7.35,0,0,1-3.39-.78,8.59,8.59,0,0,1-2.65-2.09,10,10,0,0,1-1.74-3A9.54,9.54,0,0,1,75.41,53.08Z"/><path class="cls-1" d="M93.48,62.1l6.83-17.75h3.32l6.8,17.75h-4.35l-1.37-4H99.18l-1.35,4ZM102,48.7l-2.13,6.6H104Z"/><path class="cls-1" d="M114.56,62.1V44.35h8a5.16,5.16,0,0,1,2.31.53,6.27,6.27,0,0,1,1.84,1.37,6.55,6.55,0,0,1,1.21,1.93,5.76,5.76,0,0,1,.44,2.17,6.14,6.14,0,0,1-.78,3,5.4,5.4,0,0,1-2.12,2.12l4.07,6.6h-4.62l-3.58-5.72h-2.67V62.1Zm4.1-9.3h3.75a1.53,1.53,0,0,0,1.25-.68,2.84,2.84,0,0,0,.52-1.77,2.5,2.5,0,0,0-.6-1.75,1.76,1.76,0,0,0-1.3-.65h-3.62Z"/><path class="cls-1" d="M147.13,48h-5.4V62.1h-4.1V48h-5.42v-3.6h14.92Z"/></g><rect class="cls-2" x="80.18" y="35" width="68.68" height="2.19" rx="1.1"/><rect class="cls-2" x="83.56" y="28.04" width="68.68" height="2.19" rx="1.1"/></svg>